<?xml version="1.0" encoding="UTF-8" standalone="no"?>
<svg
   xmlns:dc="http://purl.org/dc/elements/1.1/"
   xmlns:cc="http://creativecommons.org/ns#"
   xmlns:rdf="http://www.w3.org/1999/02/22-rdf-syntax-ns#"
   xmlns:svg="http://www.w3.org/2000/svg"
   xmlns="http://www.w3.org/2000/svg"
   xmlns:sodipodi="http://sodipodi.sourceforge.net/DTD/sodipodi-0.dtd"
   xmlns:inkscape="http://www.inkscape.org/namespaces/inkscape"
   sodipodi:docname="favorite-technologies-logos.svg"
   inkscape:version="1.0 (4035a4fb49, 2020-05-01)"
   id="svg8"
   version="1.1"
   viewBox="0 0 210 297"
   height="1122.5197"
   width="793.70081">
  <defs
     id="defs2" />
  <sodipodi:namedview
     showborder="false"
     units="px"
     showgrid="false"
     inkscape:document-rotation="0"
     inkscape:current-layer="layer1"
     inkscape:document-units="px"
     inkscape:cy="530.65847"
     inkscape:cx="288.47629"
     inkscape:zoom="0.7438244"
     inkscape:pageshadow="2"
     inkscape:pageopacity="0.0"
     borderopacity="1.0"
     bordercolor="#666666"
     pagecolor="#ffffff"
     id="base" />
  <metadata
     id="metadata5">
    <rdf:RDF>
      <cc:Work
         rdf:about="">
        <dc:format>image/svg+xml</dc:format>
        <dc:type
           rdf:resource="http://purl.org/dc/dcmitype/StillImage" />
        <dc:title></dc:title>
      </cc:Work>
    </rdf:RDF>
  </metadata>
  <g
     id="layer1"
     inkscape:groupmode="layer"
     inkscape:label="Layer 1">
    <path
       inkscape:export-ydpi="94"
       inkscape:export-xdpi="94"
       style="stroke-width:0.264584"
       d="m -121.7893,79.548817 c -0.13667,0 -0.27766,0.0066 -0.42332,0.02003 -3.72691,0.293647 -2.7383,4.23932 -2.79562,5.554228 -0.067,0.963017 -0.26467,1.722343 -0.92599,2.663334 -0.7805,0.926889 -1.87582,2.425216 -2.39526,3.987073 -0.24499,0.733769 -0.36158,1.485134 -0.25299,2.195059 a 0.37392639,0.37392639 0 0 0 -0.097,0.11902 c -0.22931,0.236325 -0.39685,0.529142 -0.58469,0.739898 -0.17533,0.175669 -0.42772,0.235666 -0.70288,0.352788 -0.27598,0.119942 -0.58027,0.237327 -0.76196,0.59967 -0.0793,0.166654 -0.11994,0.34749 -0.11638,0.530909 0,0.175656 0.0233,0.352788 0.0484,0.472717 0.051,0.351878 0.10228,0.642033 0.0353,0.855451 -0.21965,0.59967 -0.24698,1.009754 -0.0933,1.308739 0.15332,0.294649 0.4718,0.414486 0.82895,0.530012 0.71437,0.176315 1.68445,0.11902 2.44643,0.529145 0.81662,0.41098 1.64562,0.59086 2.30705,0.41451 0.46387,-0.10228 0.85543,-0.40921 1.06531,-0.834296 0.51772,-0.0026 1.08475,-0.237328 1.99311,-0.294649 0.61646,-0.05101 1.38812,0.23531 2.27265,0.176315 0.0233,0.117965 0.0556,0.174667 0.1007,0.29366 l 0.003,0.0026 c 0.34481,0.6861 0.98156,0.99829 1.66152,0.94449 0.67993,-0.053 1.40396,-0.47268 1.99044,-1.151739 0.55647,-0.674668 1.48422,-0.955992 2.09716,-1.325505 0.30699,-0.175327 0.5547,-0.413616 0.57234,-0.752275 0.02,-0.352748 -0.17633,-0.715224 -0.62967,-1.213497 v -0.08567 l -0.003,-0.0026 c -0.14999,-0.176328 -0.22032,-0.471847 -0.29798,-0.816661 -0.075,-0.353658 -0.16066,-0.693173 -0.43391,-0.92246 h -0.003 c -0.0519,-0.04771 -0.10834,-0.05905 -0.16565,-0.11902 a 0.31483897,0.31483897 0 0 0 -0.16766,-0.05628 c 0.38007,-1.127074 0.23299,-2.248862 -0.15267,-3.257772 -0.47004,-1.24347 -1.29196,-2.326455 -1.9181,-3.071652 -0.702,-0.886332 -1.3899,-1.725887 -1.37577,-2.970254 0.0233,-1.897853 0.208,-5.408716 -3.12548,-5.413975 z m 0.46655,3.002862 h 0.0105 c 0.188,0 0.34922,0.0547 0.51502,0.174654 0.16765,0.11902 0.29098,0.292659 0.38628,0.470041 0.0927,0.228325 0.13933,0.404812 0.14633,0.638501 0,-0.01661 0.007,-0.03532 0.007,-0.05299 v 0.09266 a 0.07584358,0.07584358 0 0 1 -0.004,-0.02003 l -0.004,-0.02003 a 1.5935967,1.5935967 0 0 1 -0.13233,0.622631 0.84045251,0.84045251 0 0 1 -0.18765,0.295321 0.62615035,0.62615035 0 0 0 -0.0776,-0.03704 c -0.0916,-0.03967 -0.17465,-0.05628 -0.25065,-0.117306 a 1.1570553,1.1570553 0 0 0 -0.19399,-0.05839 c 0.044,-0.05299 0.12864,-0.117306 0.16133,-0.174655 0.0467,-0.112956 0.0724,-0.23299 0.0776,-0.354514 v -0.01674 a 1.0671013,1.0671013 0 0 0 -0.0536,-0.352775 c -0.0397,-0.117965 -0.089,-0.176328 -0.16133,-0.29366 -0.0739,-0.05826 -0.14733,-0.116384 -0.23533,-0.116384 h -0.0133 c -0.082,0 -0.15532,0.02662 -0.23099,0.116384 a 0.70552152,0.70552152 0 0 0 -0.18065,0.294649 1.0406442,1.0406442 0 0 0 -0.0793,0.352761 v 0.01661 c 10e-4,0.07869 0.007,0.157994 0.0167,0.235654 -0.17033,-0.05905 -0.3863,-0.11902 -0.53531,-0.177989 a 1.4419096,1.4419096 0 0 1 -0.0167,-0.176328 v -0.01661 a 1.5627302,1.5627302 0 0 1 0.13233,-0.677303 c 0.0724,-0.19399 0.20465,-0.358047 0.37921,-0.470042 a 0.86867335,0.86867335 0 0 1 0.52385,-0.176328 z m -2.61221,0.05193 h 0.0333 c 0.12534,0 0.238,0.04231 0.35189,0.11902 0.12864,0.113615 0.23299,0.253987 0.30332,0.410083 0.0794,0.175656 0.12337,0.352775 0.13498,0.58823 v 0.004 c 0.007,0.117965 0.007,0.176328 -0.001,0.234652 v 0.07065 c -0.0266,0.0066 -0.0493,0.01661 -0.0733,0.02003 -0.13399,0.04864 -0.24165,0.11902 -0.34658,0.176328 0.0106,-0.07935 0.0106,-0.158666 0.003,-0.235323 v -0.01331 c -0.0106,-0.117306 -0.0353,-0.176328 -0.0724,-0.293647 a 0.54060584,0.54060584 0 0 0 -0.14633,-0.235324 0.21871168,0.21871168 0 0 0 -0.16133,-0.05628 h -0.02 c -0.0626,0.0066 -0.11467,0.03532 -0.16399,0.116383 a 0.48680984,0.48680984 0 0 0 -0.1057,0.237987 0.83251539,0.83251539 0 0 0 -0.02,0.290984 v 0.01331 c 0.0105,0.119019 0.0333,0.176328 0.0707,0.294649 0.0407,0.11836 0.0863,0.176328 0.14633,0.236325 0.0105,0.0066 0.0166,0.01661 0.0301,0.02003 -0.0617,0.05035 -0.10294,0.06168 -0.15533,0.119942 a 0.26809817,0.26809817 0 0 1 -0.11559,0.05997 2.310583,2.310583 0 0 1 -0.24266,-0.354554 1.5627302,1.5627302 0 0 1 -0.13665,-0.588204 1.5512654,1.5512654 0 0 1 0.0707,-0.589139 1.2611197,1.2611197 0 0 1 0.24965,-0.471808 c 0.11295,-0.117306 0.22932,-0.176328 0.36861,-0.176328 z m 1.2082,1.504522 c 0.29266,0 0.64644,0.05733 1.07239,0.351879 0.25832,0.176328 0.46124,0.237327 0.92778,0.412759 h 0.003 c 0.22499,0.119942 0.35718,0.234651 0.42155,0.351878 v -0.115593 a 0.50356597,0.50356597 0 0 1 0.0133,0.414473 c -0.10834,0.273323 -0.45508,0.567076 -0.93746,0.742573 v 0.0013 c -0.23631,0.11902 -0.44183,0.293648 -0.68346,0.41007 -0.24332,0.11902 -0.51857,0.257665 -0.89248,0.235324 a 1.0044863,1.0044863 0 0 1 -0.39509,-0.05905 3.1448621,3.1448621 0 0 1 -0.28398,-0.174654 c -0.172,-0.11902 -0.31999,-0.292659 -0.53972,-0.410084 v -0.004 h -0.004 c -0.35278,-0.21699 -0.54327,-0.451549 -0.605,-0.626163 -0.0617,-0.236326 -0.004,-0.414486 0.17032,-0.529143 0.19767,-0.119019 0.33515,-0.238988 0.42598,-0.296323 0.0916,-0.06538 0.12601,-0.09002 0.15533,-0.115592 h 10e-4 v -0.0026 c 0.14899,-0.177989 0.38451,-0.414512 0.73992,-0.530039 0.12271,-0.03335 0.25933,-0.05734 0.411,-0.05734 z m 2.46932,1.889049 c 0.31564,1.249638 1.05478,3.064612 1.53013,3.944737 0.25231,0.470951 0.75399,1.463096 0.97185,2.666866 0.13765,-0.004 0.29098,0.01674 0.4524,0.05628 0.56972,-1.473627 -0.4815,-3.057548 -0.96038,-3.497591 -0.19399,-0.176328 -0.20465,-0.295321 -0.10834,-0.295321 0.52034,0.470938 1.20381,1.386359 1.45163,2.431411 0.11467,0.47182 0.14099,0.973627 0.02,1.47277 0.059,0.02333 0.11902,0.05299 0.18067,0.05905 0.91012,0.470937 1.2461,0.827218 1.08471,1.355464 v -0.03796 c -0.053,-0.0026 -0.10571,0 -0.15865,0 h -0.0133 c 0.13299,-0.411849 -0.16065,-0.727561 -0.93925,-1.079452 -0.80693,-0.352775 -1.4516,-0.29631 -1.56096,0.410083 -0.007,0.03796 -0.0105,0.05839 -0.0166,0.119019 -0.06,0.02003 -0.12271,0.04666 -0.18432,0.05628 -0.37922,0.236325 -0.58385,0.59001 -0.69937,1.046818 -0.11467,0.470041 -0.15,1.019481 -0.18065,1.648281 v 0.0026 c -0.0167,0.294662 -0.15,0.739028 -0.28133,1.190577 -1.32284,0.945394 -3.15722,1.356374 -4.7164,0.294649 a 2.3326306,2.3326306 0 0 0 -0.35453,-0.470041 1.2787577,1.2787577 0 0 0 -0.24265,-0.293648 c 0.16066,0 0.29799,-0.02662 0.41009,-0.05905 a 0.54236967,0.54236967 0 0 0 0.27698,-0.294662 c 0.0953,-0.235311 0,-0.614671 -0.30432,-1.02565 -0.30431,-0.411836 -0.82106,-0.877489 -1.57686,-1.341361 -0.55561,-0.352749 -0.86955,-0.767261 -1.01418,-1.231147 -0.14566,-0.470937 -0.126,-0.956848 -0.0133,-1.450732 0.21599,-0.943615 0.76989,-1.860803 1.12354,-2.43667 0.0944,-0.05733 0.0333,0.119019 -0.35981,0.858957 -0.34922,0.662291 -1.00536,2.202123 -0.10769,3.398869 a 7.163689,7.163689 0 0 1 0.57061,-2.536354 c 0.49738,-1.127073 1.53716,-3.090183 1.61915,-4.645871 0.0423,0.03335 0.19133,0.119019 0.25499,0.177989 0.19233,0.117306 0.33513,0.29366 0.52031,0.410083 0.18533,0.17733 0.42068,0.295321 0.77256,0.295321 0.0343,0.0026 0.066,0.0066 0.097,0.0066 0.36336,0 0.64381,-0.11836 0.87927,-0.236325 0.25565,-0.118361 0.45857,-0.294649 0.6526,-0.352749 h 0.004 c 0.41184,-0.119019 0.7364,-0.354514 0.92073,-0.617345 z m 1.92697,7.900085 c 0.0333,0.529142 0.30266,1.097944 0.77783,1.214367 0.51857,0.117965 1.26464,-0.293647 1.57949,-0.674668 l 0.18599,-0.01054 c 0.27766,-0.0066 0.50884,0.01054 0.74696,0.236312 l 0.003,0.0026 c 0.18333,0.175327 0.26899,0.467406 0.34481,0.77252 0.075,0.352788 0.136,0.687901 0.36073,0.940122 0.42861,0.464782 0.56884,0.798999 0.56086,1.005352 l 0.003,-0.0066 v 0.01661 l -0.003,-0.01054 c -0.0133,0.230987 -0.16299,0.349255 -0.43917,0.52474 -0.55561,0.353657 -1.53979,0.627903 -2.16683,1.384566 -0.54501,0.649968 -1.20821,1.005394 -1.79554,1.050354 -0.58558,0.0467 -1.09092,-0.17632 -1.38814,-0.791925 l -0.004,-0.0026 c -0.18531,-0.352748 -0.10597,-0.903954 0.0493,-1.490392 0.15532,-0.58914 0.37745,-1.185279 0.40832,-1.672982 0.0333,-0.629669 0.067,-1.177343 0.17199,-1.59975 0.10571,-0.410084 0.27165,-0.702901 0.56529,-0.867801 l 0.0397,-0.02003 z m -9.5369,0.04336 h 0.0105 c 0.0467,0 0.0927,0.004 0.13833,0.01331 0.33166,0.04864 0.62265,0.293648 0.90219,0.663201 l 0.80253,1.467498 0.003,0.0026 c 0.21432,0.470081 0.66494,0.938356 1.04856,1.443708 0.38274,0.527376 0.67907,0.997417 0.6429,1.384567 v 0.0066 c -0.0504,0.656136 -0.42332,1.01243 -0.99212,1.141191 -0.56884,0.11902 -1.34051,0.001 -2.11217,-0.409215 -0.8537,-0.472677 -1.86788,-0.413616 -2.51957,-0.530909 -0.32532,-0.05839 -0.53798,-0.176328 -0.63765,-0.352748 -0.097,-0.176328 -0.0996,-0.530908 0.10861,-1.084751 v -0.004 l 0.001,-0.0026 c 0.10333,-0.294649 0.0266,-0.663161 -0.0233,-0.985951 -0.0484,-0.353644 -0.0733,-0.626176 0.038,-0.828997 0.14099,-0.294649 0.34921,-0.352748 0.6085,-0.470041 0.25931,-0.11902 0.5644,-0.177989 0.80692,-0.414512 h 0.001 v -0.0013 c 0.22566,-0.236326 0.39245,-0.530013 0.58914,-0.739028 0.16767,-0.17733 0.33512,-0.296323 0.58467,-0.296323 z m 6.31355,-8.002378 c -0.38364,0.17733 -0.83342,0.471847 -1.31226,0.471847 -0.47801,0 -0.85546,-0.235654 -1.12885,-0.41098 -0.13599,-0.117965 -0.24699,-0.236325 -0.32898,-0.295321 -0.14466,-0.117965 -0.12693,-0.293647 -0.0654,-0.293647 0.096,0.01331 0.11362,0.117965 0.17533,0.176315 0.0846,0.05839 0.18966,0.176328 0.31732,0.29366 0.25765,0.176315 0.59971,0.41185 1.02918,0.41185 0.42772,0 0.92865,-0.235324 1.23291,-0.410954 0.17199,-0.119019 0.39245,-0.294649 0.57148,-0.411849 0.13766,-0.119942 0.13128,-0.235654 0.24599,-0.235654 0.11295,0.01331 0.03,0.118361 -0.1297,0.292659 a 7.1407597,7.1407597 0 0 1 -0.6085,0.412746 z m -0.95421,-1.396034 v -0.02003 c -0.007,-0.01674 0.0105,-0.03704 0.0266,-0.04402 0.0654,-0.03796 0.15865,-0.02333 0.22931,0.004 0.0556,0 0.141,0.05905 0.13233,0.11902 -0.007,0.04336 -0.075,0.05839 -0.11902,0.05839 -0.0486,0 -0.0809,-0.03796 -0.12429,-0.05997 -0.046,-0.01661 -0.12864,-0.0066 -0.14365,-0.05733 z m -0.48595,0 c -0.0166,0.05101 -0.0996,0.04336 -0.14633,0.05839 -0.0414,0.02333 -0.076,0.05997 -0.12337,0.05997 -0.044,0 -0.11467,-0.01674 -0.11994,-0.05997 -0.0105,-0.05839 0.0776,-0.117306 0.13232,-0.117306 0.0707,-0.02662 0.16233,-0.04139 0.22832,-0.004 0.0167,0.0066 0.0333,0.02662 0.0266,0.04402 v 0.01674 h 0.003 z"
       id="path837" />
    <path
       inkscape:export-ydpi="94"
       inkscape:export-xdpi="94"
       style="stroke-width:0.264583"
       d="m -83.518283,85.630654 c -0.836097,0 -2.129898,-0.950724 -3.492488,-0.917216 -1.79915,0.02333 -3.448417,1.043326 -4.375297,2.658147 -1.8671,3.241151 -0.48153,8.028321 1.339647,10.662669 0.8934,1.28233 1.94732,2.725176 3.34432,2.680186 1.34056,-0.0573 1.84326,-0.870465 3.470446,-0.870465 1.614822,0 2.072551,0.870465 3.492472,0.836095 1.443734,-0.0233 2.360064,-1.305293 3.241985,-2.599978 1.019527,-1.488698 1.442861,-2.932458 1.465799,-3.011817 -0.03441,-0.01043 -2.806322,-1.076835 -2.839856,-4.283578 -0.02333,-2.681085 2.187216,-3.963441 2.290426,-4.020748 -1.260303,-1.843256 -3.195287,-2.04965 -3.871752,-2.095488 -1.763857,-0.137658 -3.241113,0.961294 -4.065702,0.961294 z m 2.979184,-2.70405 c 0.743456,-0.892492 1.234693,-2.140453 1.097987,-3.377805 -1.064492,0.04601 -2.347721,0.709961 -3.114977,1.603352 -0.687935,0.790233 -1.282369,2.061993 -1.122738,3.27552 1.180032,0.09162 2.394499,-0.606764 3.138829,-1.500155"
       id="path850" />
    <path
       inkscape:export-ydpi="94"
       inkscape:export-xdpi="94"
       style="stroke-width:0.264583"
       d="m 2.4556246,87.659279 c 0,0 -0.3122,-2.90867 -3.19881502,-2.9898 -2.88758098,-0.0793 -4.37021998,2.18193 -4.37021998,5.41514 0,3.23244 1.638656,5.81837 4.44950698,5.81837 2.80811402,0 3.12041102,-3.23234 3.12041102,-3.23234 l 5.383485,0.322 c 0,0 0.317501,2.91924 -1.936753,5.14701 -2.250726,2.226141 -5.01836102,2.590371 -6.94638,2.575371 -1.931463,-0.0133 -4.609137,0.03 -7.196855,-2.619371 -2.5911566,-2.65473 -3.0303636,-5.23011 -3.0303636,-7.76128 0,-2.5313 0.49036,-5.88277 3.5692316,-8.42278 2.088626,-1.7278 4.209706,-2.3628 6.330783,-2.3628 8.856677,0 9.451991,8.16698 9.451991,8.16698 z"
       id="path863" />
    <path
       inkscape:export-ydpi="94"
       inkscape:export-xdpi="94"
       style="stroke-width:0.264583"
       d="m 47.894209,84.840888 c -0.14733,-0.25566 -0.35103,-0.4789 -0.57503,-0.60853 l -7.77516,-4.48906 c -0.4489,-0.25933 -1.18179,-0.25933 -1.62982,0 l -7.7769,4.48906 c -0.44803,0.25833 -0.81403,0.89339 -0.81403,1.41109 v 8.97812 c 0,0.25933 0.0917,0.5468 0.239,0.80256 0.14733,0.25567 0.351,0.4789 0.57503,0.60853 l 7.77513,4.489062 c 0.44803,0.25833 1.18182,0.25833 1.62982,0 l 7.77517,-4.489062 c 0.22399,-0.12967 0.42773,-0.35276 0.57502,-0.60853 0.14734,-0.25566 0.238,-0.54326 0.238,-0.80256 v -8.97812 c 0.003,-0.25933 -0.0883,-0.5468 -0.23633,-0.80256 z m -9.16685,11.5622 c -3.45721,0 -6.26968,-2.81338 -6.26968,-6.27058 0,-3.4572 2.81337,-6.27058 6.27054,-6.27058 a 6.2908553,6.2908553 0 0 1 5.42922,3.13354 l -2.71284,1.56982 a 3.1458686,3.1458686 0 0 0 -2.71638,-1.56982 3.1396951,3.1396951 0 0 0 -3.13704,3.13704 3.1396951,3.1396951 0 0 0 3.13618,3.13527 3.1485144,3.1485144 0 0 0 2.71637,-1.56808 l 2.71458,1.56985 a 6.2926192,6.2926192 0 0 1 -5.43095,3.13354 z m 6.27058,-5.92222 h -0.69673 v 0.69673 h -0.69676 v -0.69673 h -0.69673 v -0.69672 h 0.69673 v -0.69673 h 0.69676 v 0.69673 h 0.69673 z m 2.61227,0 h -0.69672 v 0.69673 h -0.69673 v -0.69673 h -0.69673 v -0.69672 h 0.69673 v -0.69673 h 0.69673 v 0.69673 h 0.69672 z"
       id="path876" />
    <path
       inkscape:export-ydpi="94"
       inkscape:export-xdpi="94"
       style="stroke-width:0.264583"
       d="m 81.99536,79.707588 0.79379,0.17634 0.64388,0.22935 0.52037,0.26469 0.39693,0.28235 0.30003,0.30002 0.22035,0.30003 0.14101,0.29102 0.0883,0.26468 0.0353,0.22936 0.0167,0.17634 -0.01,0.11468 v 4.70995 l -0.044,0.55564 -0.11468,0.4851 -0.18535,0.40573 -0.22935,0.33516 -0.26468,0.27335 -0.29102,0.22035 -0.30869,0.16768 -0.30869,0.12334 -0.29102,0.0883 -0.26469,0.0617 -0.22935,0.0353 -0.18535,0.0167 h -5.26562 l -0.60858,0.044 -0.52037,0.12334 -0.44103,0.19402 -0.3616,0.23801 -0.29102,0.28236 -0.23802,0.30869 -0.17634,0.31736 -0.13235,0.32635 -0.0883,0.30869 -0.0617,0.28236 -0.0353,0.23801 -0.0167,0.18535 v 2.69897 h -1.96688 l -0.18535,-0.0267 -0.24702,-0.0617 -0.28235,-0.10601 -0.30869,-0.15868 -0.31769,-0.22935 -0.31736,-0.31736 -0.30869,-0.40573 -0.28235,-0.52037 -0.24702,-0.64388 -0.18535,-0.77616 -0.12334,-0.9261 -0.044,-1.08488 0.053,-1.07604 0.14101,-0.91731 0.21169,-0.76735 0.28235,-0.62622 0.31769,-0.50273 0.35279,-0.3881 0.37046,-0.29102 0.37043,-0.21168 0.35279,-0.14101 0.31769,-0.088 0.28236,-0.044 0.21168,-0.01 h 0.14101 l 0.053,0.01 h 7.1972 v -0.73209 h -5.15094 l -0.01,-2.42551 -0.0167,-0.32636 0.044,-0.30002 0.097,-0.27336 0.15001,-0.24701 0.22035,-0.22935 0.27335,-0.20302 0.33516,-0.17635 0.3881,-0.15867 0.44983,-0.13235 0.51157,-0.10567 0.56448,-0.0883 0.62624,-0.053 0.67912,-0.0353 0.74089,-0.0167 1.12018,0.044 z m -5.55668,1.74639 -0.20301,0.29102 -0.0707,0.36163 0.0707,0.36163 0.20301,0.30002 0.29102,0.19401 0.36163,0.0793 0.36163,-0.0793 0.29102,-0.19401 0.20301,-0.30002 0.0707,-0.36163 -0.0707,-0.36163 -0.20301,-0.29102 -0.29102,-0.19401 -0.36163,-0.0793 -0.36163,0.0793 z m 11.54552,3.48393 0.24702,0.053 0.28236,0.10601 0.30869,0.15868 0.31735,0.23801 0.31769,0.30869 0.30869,0.41457 0.28236,0.52037 0.24701,0.64388 0.18535,0.77616 0.12334,0.9173 0.044,1.08485 -0.053,1.08488 -0.14101,0.9173 -0.21168,0.75852 -0.28235,0.62621 -0.31769,0.50277 -0.35283,0.3969 -0.37043,0.29102 -0.37046,0.21168 -0.35279,0.14101 -0.31736,0.0793 -0.28235,0.044 -0.21168,0.0167 -0.14102,-0.01 h -7.2501 v 0.72326 h 5.15092 l 0.01,2.43434 0.0167,0.31736 -0.044,0.30002 -0.097,0.27336 -0.15001,0.25568 -0.22068,0.22035 -0.27335,0.21168 -0.33516,0.176352 -0.3881,0.15001 -0.44983,0.13234 -0.51154,0.11468 -0.56451,0.0793 -0.62621,0.0617 -0.67915,0.0353 -0.74089,0.01 -1.12015,-0.0353 -0.94377,-0.12334 -0.79379,-0.17635 -0.64388,-0.22035 -0.52037,-0.264682 -0.3969,-0.29103 -0.30002,-0.30002 -0.22068,-0.29969 -0.14101,-0.29102 -0.0883,-0.26468 -0.0353,-0.22035 -0.0167,-0.17635 0.01,-0.11468 v -4.70994 l 0.044,-0.56448 0.11467,-0.47627 0.18535,-0.40573 0.22935,-0.33516 0.26469,-0.28235 0.29102,-0.21168 0.30869,-0.17635 0.30869,-0.12334 0.29102,-0.0883 0.26468,-0.053 0.22935,-0.0353 0.18535,-0.0167 0.11468,-0.01 h 5.15094 l 0.60858,-0.044 0.52037,-0.12335 0.44104,-0.18534 0.36162,-0.24702 0.29103,-0.28235 0.23801,-0.30869 0.17635,-0.31736 0.13234,-0.31769 0.0883,-0.30869 0.0617,-0.28236 0.0353,-0.24701 0.0167,-0.18535 v -2.69897 h 1.8434 l 0.12334,0.01 z m -5.70659,12.56863 -0.20301,0.29102 -0.0707,0.36162 0.0707,0.3616 0.20301,0.29102 0.29103,0.20268 0.36162,0.0707 0.36163,-0.0707 0.29102,-0.20268 0.20302,-0.29102 0.0707,-0.3616 -0.0707,-0.36162 -0.20302,-0.29102 -0.29102,-0.20302 -0.36163,-0.0707 -0.36162,0.0707 z"
       id="path889" />
    <path
       inkscape:export-ydpi="94"
       inkscape:export-xdpi="94"
       style="stroke-width:0.264583"
       d="m 123.6424,87.125248 h -1.5827 l -0.86342,4.4395 h 1.40495 c 0.93218,0 1.6263,-0.17616 2.08228,-0.52657 0.45624,-0.35232 0.76287,-0.93719 0.92217,-1.75867 0.15398,-0.78802 0.0836,-1.34463 -0.20784,-1.66818 -0.29339,-0.3238 -0.87686,-0.48602 -1.75537,-0.48602 z m 8.36606,-7.57645 c -11.11058,0 -20.11878,4.73802 -20.11878,10.58248 0,5.84452 9.0082,10.584192 20.11878,10.584192 11.11057,0 20.11878,-4.739672 20.11878,-10.584192 0,-5.84446 -9.00821,-10.58248 -20.11878,-10.58248 z m -5.46559,12.49215 c -0.43787,0.41885 -0.96406,0.73428 -1.53746,0.92375 -0.56333,0.18123 -1.28253,0.27501 -2.15432,0.27501 h -1.98007 l -0.54812,2.81834 h -2.31027 l 2.06219,-10.60599 h 4.44286 c 1.3362,0 2.31033,0.35042 2.92391,1.05289 0.61338,0.70084 0.7981,1.67991 0.55319,2.93735 a 4.7547382,4.7547382 0 0 1 -0.51137,1.42003 c -0.23952,0.42773 -0.55319,0.82155 -0.94054,1.17868 z m 6.74647,1.19869 0.91038,-4.69271 c 0.10583,-0.53291 0.0653,-0.89859 -0.11405,-1.09142 -0.17933,-0.19453 -0.56333,-0.29148 -1.15181,-0.29148 h -1.83084 l -1.18026,6.07758 h -2.29354 l 2.06219,-10.60764 h 2.29183 l -0.54812,2.81999 h 2.04204 c 1.28595,0 2.17118,0.22432 2.65904,0.67232 0.48792,0.44736 0.63379,1.17354 0.44103,2.17783 l -0.95899,4.93579 z m 12.73687,-3.79741 a 4.6642037,4.6642037 0 0 1 -0.51137,1.42004 c -0.23952,0.42772 -0.55318,0.82154 -0.94054,1.17868 a 4.0908185,4.0908185 0 0 1 -1.53739,0.92375 c -0.56333,0.18123 -1.2826,0.27501 -2.1561,0.27501 h -1.9783 l -0.54812,2.81999 h -2.31033 l 2.06219,-10.60593 h 4.44122 c 1.3362,0 2.31033,0.35042 2.9239,1.0529 0.61339,0.69912 0.79975,1.67819 0.55509,2.93563 z m -4.35066,-2.31698 h -1.58106 l -0.86507,4.4395 h 1.40496 c 0.93382,0 1.62794,-0.17616 2.08227,-0.52657 0.45624,-0.35232 0.76287,-0.93719 0.92382,-1.75867 0.15398,-0.78802 0.0824,-1.34463 -0.20974,-1.66818 -0.29149,-0.3238 -0.87858,-0.48602 -1.75537,-0.48602 z"
       id="path902" />
    <path
       inkscape:export-ydpi="94"
       inkscape:export-xdpi="94"
       style="stroke-width:0.264583"
       d="m 194.67673,81.692096 c -0.14923,0 -0.25084,0.0196 -0.35589,0.0442 v 0.0147 h 0.0196 c 0.0702,0.135 0.18948,0.23366 0.27783,0.35442 0.0702,0.13892 0.13009,0.27784 0.20028,0.41578 l 0.0196,-0.0196 c 0.12223,-0.0859 0.18163,-0.22335 0.18163,-0.43247 -0.052,-0.0609 -0.0599,-0.12223 -0.10407,-0.18162 -0.052,-0.0869 -0.16347,-0.13009 -0.23366,-0.19881 z m -13.81267,17.13623 h -1.20399 a 66.048712,66.048712 0 0 0 -0.35049,-5.72765 h -0.01 l -1.83128,5.72765 h -0.91569 l -1.81827,-5.72765 h -0.0147 a 94.671463,94.671463 0 0 0 -0.25329,5.72765 h -1.09747 c 0.0712,-2.55342 0.24937,-4.94838 0.53246,-7.18233 h 1.49366 l 1.73384,5.2783 h 0.01 l 1.74945,-5.2783 h 1.42218 c 0.31417,2.61708 0.49874,5.01332 0.55592,7.18233 z m 5.21723,-5.29907 c -0.49093,2.65602 -1.13771,4.58862 -1.9378,5.7926 -0.62597,0.929934 -1.31173,1.393624 -2.05596,1.393624 -0.19881,0 -0.44179,-0.0599 -0.73514,-0.17918 v -0.641634 c 0.14284,0.0196 0.31171,0.0344 0.50133,0.0344 0.34804,0 0.62735,-0.0972 0.84034,-0.28815 0.25575,-0.23366 0.38289,-0.49614 0.38289,-0.78576 0,-0.20126 -0.10014,-0.61041 -0.29845,-1.22607 l -1.31699,-4.09896 h 1.18189 l 0.94422,3.06516 c 0.21304,0.69612 0.30238,1.1819 0.26605,1.45851 0.51955,-1.38188 0.8806,-2.89237 1.08451,-4.52367 z m 16.0076,5.29907 h -3.4158 v -7.18233 h 1.1494 v 6.29914 h 2.2664 z m -4.31195,0.17525 -1.31959,-0.64939 c 0.11683,-0.0987 0.22974,-0.20519 0.33135,-0.32447 0.56235,-0.6572 0.84161,-1.6339 0.84161,-2.9262 0,-2.37675 -0.93252,-3.56645 -2.7989,-3.56645 -0.91437,0 -1.6287,0.3014 -2.143,0.90524 -0.55847,0.65979 -0.83901,1.63129 -0.83901,2.91578 0,1.26245 0.24691,2.18978 0.7455,2.77942 0.45456,0.53251 1.13904,0.79877 2.05596,0.79877 0.34313,0 0.65719,-0.0442 0.94166,-0.12714 l 1.72088,1.00267 0.46732,-0.80784 z m -4.27563,-1.61309 c -0.29207,-0.46781 -0.43786,-1.22087 -0.43786,-2.25472 0,-1.80924 0.55072,-2.71447 1.64946,-2.71447 0.57536,0 1.00007,0.21697 1.26893,0.64938 0.29109,0.47027 0.43639,1.21567 0.43639,2.23783 0,1.82348 -0.55067,2.73785 -1.64946,2.73785 -0.57796,0 -1.00007,-0.21697 -1.27021,-0.64939 z m -2.1534,-0.552 c 0,0.61041 -0.22335,1.11175 -0.6702,1.50141 -0.4467,0.38976 -1.04292,0.58445 -1.79751,0.58445 -0.70525,0 -1.38193,-0.22335 -2.043,-0.66888 l 0.30779,-0.61821 c 0.56883,0.28569 1.08185,0.42608 1.54554,0.42608 0.43099,0 0.77019,-0.0947 1.01696,-0.28569 a 0.9792883,0.9792883 0 0 0 0.38976,-0.79876 c 0,-0.42854 -0.29846,-0.79224 -0.84162,-1.09747 -0.50389,-0.27686 -1.51049,-0.8533 -1.51049,-0.8533 -0.54807,-0.39859 -0.82081,-0.82605 -0.82081,-1.5287 0,-0.58444 0.20372,-1.05201 0.61042,-1.40917 0.4089,-0.3608 0.93512,-0.53899 1.58451,-0.53899 0.665,0 1.27281,0.17671 1.81833,0.53251 l -0.27686,0.61821 a 3.5405039,3.5405039 0 0 0 -1.38188,-0.29895 c -0.36767,0 -0.65199,0.0884 -0.84942,0.26754 a 0.88967173,0.88967173 0 0 0 -0.32202,0.68055 c 0,0.42609 0.30385,0.79229 0.86503,1.104 0.51042,0.27931 1.54166,0.87018 1.54166,0.87018 0.56236,0.39614 0.84162,0.81825 0.84162,1.51697 z m 12.18526,-7.60051 c -0.69485,-0.0196 -1.23388,0.052 -1.68456,0.24397 -0.13009,0.052 -0.33773,0.052 -0.35589,0.21697 0.0717,0.0687 0.082,0.18162 0.14284,0.27783 0.10407,0.17427 0.28324,0.40645 0.44965,0.52863 0.18163,0.14285 0.36375,0.28079 0.5546,0.40253 0.33773,0.20764 0.72081,0.33134 1.05201,0.54031 0.1885,0.12223 0.38043,0.27686 0.57143,0.40645 0.0947,0.0648 0.1561,0.18163 0.27784,0.22335 v -0.0245 c -0.0599,-0.0781 -0.0781,-0.19095 -0.13646,-0.27784 -0.0869,-0.0869 -0.17377,-0.16494 -0.25968,-0.25084 a 4.186003,4.186003 0 0 0 -0.90268,-0.87667 c -0.27784,-0.18948 -0.88575,-0.45455 -1.00007,-0.77279 l -0.0147,-0.0196 c 0.18948,-0.0147 0.41578,-0.0859 0.59745,-0.13744 0.29502,-0.078 0.56501,-0.0609 0.87019,-0.13794 0.13744,-0.0344 0.27685,-0.0781 0.41577,-0.12223 v -0.0781 c -0.15561,-0.15561 -0.27293,-0.36767 -0.43394,-0.51302 a 11.516379,11.516379 0 0 0 -1.43386,-1.0689 c -0.27293,-0.17426 -0.61822,-0.28569 -0.90528,-0.43394 -0.10407,-0.052 -0.27784,-0.0781 -0.33773,-0.16493 -0.15561,-0.18948 -0.24691,-0.4418 -0.35736,-0.66755 a 22.975611,22.975611 0 0 1 -0.71046,-1.51049 c -0.1556,-0.34018 -0.25084,-0.67929 -0.44179,-0.991 -0.8962,-1.47671 -1.86638,-2.37159 -3.35871,-3.24698 -0.32054,-0.18163 -0.7052,-0.25968 -1.11175,-0.35589 -0.21697,-0.01 -0.43394,-0.0245 -0.64938,-0.0344 -0.14285,-0.0609 -0.28079,-0.22581 -0.40253,-0.30533 -0.49353,-0.31171 -1.77154,-0.98706 -2.13523,-0.0933 -0.23366,0.56368 0.34705,1.11956 0.54811,1.4053 0.14923,0.19881 0.33773,0.42608 0.4418,0.64939 0.0609,0.1507 0.078,0.30532 0.13892,0.46241 0.13744,0.3819 0.269,0.80784 0.45063,1.16501 0.0947,0.18162 0.1988,0.37257 0.32054,0.53643 0.0702,0.0947 0.18948,0.13892 0.21697,0.29502 -0.12223,0.17672 -0.13008,0.43394 -0.19979,0.64939 -0.31171,0.98318 -0.18948,2.19885 0.25182,2.92227 0.13892,0.21549 0.47027,0.69356 0.91304,0.51041 0.38976,-0.1561 0.30386,-0.64938 0.41578,-1.08445 0.0245,-0.10407 0.01,-0.17279 0.0623,-0.24299 v 0.0196 c 0.12223,0.24397 0.24446,0.47664 0.35589,0.72081 0.26753,0.42608 0.7351,0.86758 1.12604,1.16241 0.20764,0.1556 0.37257,0.42608 0.63255,0.52215 v -0.0246 h -0.0196 c -0.056,-0.0756 -0.13008,-0.11192 -0.20028,-0.17279 a 4.4743346,4.4743346 0 0 1 -0.45456,-0.5195 11.377408,11.377408 0 0 1 -0.97017,-1.58196 c -0.14285,-0.27293 -0.26213,-0.56623 -0.37651,-0.83509 -0.052,-0.10407 -0.052,-0.25968 -0.13892,-0.31171 -0.13008,0.18948 -0.32104,0.35442 -0.41578,0.58832 -0.16493,0.37405 -0.18162,0.83386 -0.24396,1.31178 -0.0344,0.01 -0.0196,0 -0.0344,0.0196 -0.27784,-0.0677 -0.37258,-0.35589 -0.47664,-0.5974 -0.25968,-0.61694 -0.30288,-1.60793 -0.0781,-2.31834 0.0609,-0.18162 0.32054,-0.75591 0.21697,-0.92992 -0.0545,-0.16494 -0.22581,-0.25968 -0.32055,-0.39369 a 3.2184038,3.2184038 0 0 1 -0.31171,-0.5546 c -0.20764,-0.48597 -0.31171,-1.02344 -0.53771,-1.50922 -0.10407,-0.22482 -0.28569,-0.45995 -0.43394,-0.66627 -0.16494,-0.23366 -0.34656,-0.39859 -0.47812,-0.67535 -0.0442,-0.0947 -0.10406,-0.25183 -0.0344,-0.35589 0.0196,-0.0702 0.0545,-0.0972 0.12223,-0.11683 0.11438,-0.0933 0.43492,0.0294 0.54812,0.0805 0.32103,0.13009 0.59092,0.25182 0.85978,0.43394 0.12223,0.0859 0.25329,0.25084 0.4089,0.29355 h 0.18163 c 0.27784,0.0609 0.59092,0.0196 0.8507,0.0947 0.46093,0.14824 0.87666,0.36374 1.24944,0.5974 a 7.7317022,7.7317022 0 0 1 2.70794,2.96905 c 0.10407,0.20028 0.14923,0.38289 0.24397,0.59097 0.18163,0.42854 0.40645,0.86111 0.59093,1.27541 0.18162,0.4089 0.35736,0.82601 0.61821,1.16501 0.13009,0.18163 0.65199,0.27686 0.8858,0.3716 0.17279,0.0781 0.44179,0.14923 0.59745,0.24397 0.29846,0.18162 0.58965,0.38976 0.87019,0.58964 0.14284,0.0987 0.57536,0.31564 0.60133,0.49098 z"
       id="path915" />
    <path
       inkscape:export-ydpi="94"
       inkscape:export-xdpi="94"
       style="stroke-width:0.264583"
       d="m 241.6577,80.430728 v 19.40277 a 0.88194442,0.88194442 0 0 1 -0.88193,0.881972 h -3.0868 V 85.722398 c 0,-0.72937 -0.59357,-1.32293 -1.32294,-1.32293 h -1.7639 v -3.96874 a 0.88194442,0.88194442 0 0 1 0.88197,-0.88193 h 5.29167 a 0.88194442,0.88194442 0 0 1 0.88193,0.88193 z m -5.29167,4.40974 h -5.29166 a 0.88194442,0.88194442 0 0 0 -0.88194,0.88193 v 3.96873 h 1.76387 c 0.7294,0 1.32293,0.59357 1.32293,1.32294 v 9.701402 h 3.96874 V 85.722398 a 0.88194442,0.88194442 0 0 0 -0.88194,-0.88193 z m -4.40973,5.29166 h -5.29167 a 0.88194442,0.88194442 0 0 0 -0.88193,0.88194 v 8.81943 a 0.88194442,0.88194442 0 0 0 0.88193,0.881972 h 6.17364 v -9.701402 a 0.88194442,0.88194442 0 0 0 -0.88197,-0.88194 z"
       id="path928" />
    <path
       inkscape:export-ydpi="94"
       inkscape:export-xdpi="94"
       style="stroke-width:0.264583"
       d="m 286.08169,79.548994 q 0.41325,0 0.70551,0.30247 0.30247,0.29218 0.30247,0.70555 v 19.15043 q 0,0.413246 -0.30247,0.705546 -0.29218,0.30247 -0.70551,0.30247 h -16.12672 q -0.41325,0 -0.70555,-0.30247 -0.30247,-0.29218 -0.30247,-0.705546 v -3.5277 h -5.0396 q -0.41325,0 -0.70555,-0.30247 -0.30247,-0.29219 -0.30247,-0.70555 v -10.07921 q 0,-0.41321 0.30247,-0.70551 0.28228,-0.30247 0.70555,-0.30247 h 5.0396 v -3.52771 q 0,-0.41325 0.30247,-0.70555 0.29219,-0.30247 0.70555,-0.30247 z m -17.13463,11.87327 1.43125,2.68106 h 2.15696 l -2.39886,-3.90066 2.35851,-3.83006 h -2.0763 l -1.3103,2.419 -0.0503,0.0808 -0.0404,0.0907 -0.64505,-1.29015 -0.66525,-1.30021 h -2.19725 l 2.28796,3.85022 -2.49962,3.8805 h 2.17711 z m 8.31532,7.78112 v -3.02376 h -6.80346 v 3.02376 z m 0,-4.53562 v -3.7797 h -2.26781 v 3.7797 z m 0,-5.2916 v -3.77966 h -2.26781 v 3.77966 z m 0,-5.29156 v -3.02375 h -6.80346 v 3.02375 z m 8.31532,15.11878 v -3.02376 h -6.80342 v 3.02376 z m 0,-4.53562 v -3.7797 h -6.80342 v 3.7797 z m 0,-5.2916 v -3.77966 h -6.80342 v 3.77966 z m 0,-5.29156 v -3.02375 h -6.80342 v 3.02375 z"
       id="path941" />
    <path
       inkscape:export-ydpi="94"
       inkscape:export-xdpi="94"
       style="stroke-width:0.264583"
       d="m -33.265571,81.787342 -4.37961,-2.10734 a 1.324524,1.324524 0 0 0 -1.51161,0.257 l -8.38685,7.65102 -3.65266,-2.77314 a 0.88567567,0.88567567 0 0 0 -1.13126,0.0506 l -1.172,1.06565 a 0.88656222,0.88656222 0 0 0 -9e-4,1.3112 l 3.1677,2.89022 -3.1677,2.89019 a 0.88656222,0.88656222 0 0 0 9e-4,1.31123 l 1.17291,1.06474 a 0.88567567,0.88567567 0 0 0 1.13126,0.0506 l 3.65262,-2.77314 8.38689,7.651008 a 1.3227508,1.3227508 0 0 0 1.5107,0.25701 l 4.38139,-2.107378 a 1.3298434,1.3298434 0 0 0 0.75181,-1.19861 v -14.29227 a 1.3298434,1.3298434 0 0 0 -0.75359,-1.19865 z m -4.56226,13.17522 -6.36371,-4.82999 6.36371,-4.82999 z"
       id="path954" />
    <path
       id="path965"
       d="m -121.7893,145.35456 c -0.13667,0 -0.27766,0.007 -0.42332,0.02 -3.72691,0.29365 -2.7383,4.23932 -2.79562,5.55423 -0.067,0.96301 -0.26467,1.72234 -0.92599,2.66333 -0.7805,0.92689 -1.87582,2.42522 -2.39526,3.98707 -0.24499,0.73377 -0.36158,1.48514 -0.25299,2.19506 a 0.37392639,0.37392639 0 0 0 -0.097,0.11902 c -0.22931,0.23633 -0.39685,0.52915 -0.58469,0.7399 -0.17533,0.17567 -0.42772,0.23567 -0.70288,0.35279 -0.27598,0.11994 -0.58027,0.23733 -0.76196,0.59967 -0.0793,0.16665 -0.11994,0.34749 -0.11638,0.53091 0,0.17565 0.0233,0.35279 0.0484,0.47272 0.051,0.35187 0.10228,0.64203 0.0353,0.85545 -0.21965,0.59967 -0.24698,1.00975 -0.0933,1.30874 0.15332,0.29464 0.4718,0.41448 0.82895,0.53001 0.71437,0.17631 1.68445,0.11902 2.44643,0.52914 0.81662,0.41098 1.64562,0.59086 2.30705,0.41451 0.46387,-0.10228 0.85543,-0.40921 1.06531,-0.83429 0.51772,-0.003 1.08475,-0.23733 1.99311,-0.29465 0.61646,-0.051 1.38812,0.23531 2.27265,0.17631 0.0233,0.11797 0.0556,0.17467 0.1007,0.29366 l 0.003,0.003 c 0.34481,0.6861 0.98156,0.99829 1.66152,0.94449 0.67993,-0.053 1.40396,-0.47268 1.99044,-1.15174 0.55647,-0.67466 1.48422,-0.95599 2.09716,-1.3255 0.30699,-0.17533 0.5547,-0.41362 0.57234,-0.75228 0.02,-0.35274 -0.17633,-0.71522 -0.62967,-1.21349 v -0.0857 l -0.003,-0.003 c -0.14999,-0.17633 -0.22032,-0.47185 -0.29798,-0.81666 -0.075,-0.35366 -0.16066,-0.69318 -0.43391,-0.92246 h -0.003 c -0.0519,-0.0477 -0.10834,-0.059 -0.16565,-0.11902 a 0.31483897,0.31483897 0 0 0 -0.16766,-0.0563 c 0.38007,-1.12708 0.23299,-2.24887 -0.15267,-3.25778 -0.47004,-1.24347 -1.29196,-2.32645 -1.9181,-3.07165 -0.702,-0.88633 -1.3899,-1.72589 -1.37577,-2.97025 0.0233,-1.89786 0.208,-5.40872 -3.12548,-5.41398 z m 0.46655,3.00286 h 0.0105 c 0.188,0 0.34922,0.0547 0.51502,0.17466 0.16765,0.11902 0.29098,0.29265 0.38628,0.47004 0.0927,0.22832 0.13933,0.40481 0.14633,0.6385 0,-0.0166 0.007,-0.0353 0.007,-0.053 v 0.0927 a 0.07584358,0.07584358 0 0 1 -0.004,-0.02 l -0.004,-0.02 a 1.5935967,1.5935967 0 0 1 -0.13233,0.62263 0.84045251,0.84045251 0 0 1 -0.18765,0.29532 0.62615035,0.62615035 0 0 0 -0.0776,-0.037 c -0.0916,-0.0397 -0.17465,-0.0563 -0.25065,-0.11731 a 1.1570553,1.1570553 0 0 0 -0.19399,-0.0584 c 0.044,-0.053 0.12864,-0.1173 0.16133,-0.17465 0.0467,-0.11296 0.0724,-0.23299 0.0776,-0.35452 v -0.0167 a 1.0671013,1.0671013 0 0 0 -0.0536,-0.35277 c -0.0397,-0.11797 -0.089,-0.17633 -0.16133,-0.29366 -0.0739,-0.0583 -0.14733,-0.11638 -0.23533,-0.11638 h -0.0133 c -0.082,0 -0.15532,0.0266 -0.23099,0.11638 a 0.70552152,0.70552152 0 0 0 -0.18065,0.29465 1.0406442,1.0406442 0 0 0 -0.0793,0.35276 v 0.0166 c 10e-4,0.0787 0.007,0.15799 0.0167,0.23565 -0.17033,-0.0591 -0.3863,-0.11902 -0.53531,-0.17799 a 1.4419096,1.4419096 0 0 1 -0.0167,-0.17632 v -0.0166 a 1.5627302,1.5627302 0 0 1 0.13233,-0.67731 c 0.0724,-0.19399 0.20465,-0.35804 0.37921,-0.47004 a 0.86867335,0.86867335 0 0 1 0.52385,-0.17633 z m -2.61221,0.0519 h 0.0333 c 0.12534,0 0.238,0.0423 0.35189,0.11902 0.12864,0.11362 0.23299,0.25399 0.30332,0.41008 0.0794,0.17566 0.12337,0.35278 0.13498,0.58823 v 0.004 c 0.007,0.11797 0.007,0.17633 -0.001,0.23466 v 0.0707 c -0.0266,0.007 -0.0493,0.0166 -0.0733,0.02 -0.13399,0.0486 -0.24165,0.11902 -0.34658,0.17632 0.0106,-0.0794 0.0106,-0.15866 0.003,-0.23532 v -0.0133 c -0.0106,-0.1173 -0.0353,-0.17633 -0.0724,-0.29365 a 0.54060584,0.54060584 0 0 0 -0.14633,-0.23532 0.21871168,0.21871168 0 0 0 -0.16133,-0.0563 h -0.02 c -0.0626,0.007 -0.11467,0.0353 -0.16399,0.11638 a 0.48680984,0.48680984 0 0 0 -0.1057,0.23799 0.83251539,0.83251539 0 0 0 -0.02,0.29098 v 0.0133 c 0.0105,0.11902 0.0333,0.17633 0.0707,0.29465 0.0407,0.11836 0.0863,0.17633 0.14633,0.23633 0.0105,0.007 0.0166,0.0166 0.0301,0.02 -0.0617,0.0504 -0.10294,0.0617 -0.15533,0.11994 a 0.26809817,0.26809817 0 0 1 -0.11559,0.06 2.310583,2.310583 0 0 1 -0.24266,-0.35455 1.5627302,1.5627302 0 0 1 -0.13665,-0.58821 1.5512654,1.5512654 0 0 1 0.0707,-0.58914 1.2611197,1.2611197 0 0 1 0.24965,-0.4718 c 0.11295,-0.11731 0.22932,-0.17633 0.36861,-0.17633 z m 1.2082,1.50452 c 0.29266,0 0.64644,0.0573 1.07239,0.35188 0.25832,0.17633 0.46124,0.23733 0.92778,0.41276 h 0.003 c 0.22499,0.11994 0.35718,0.23465 0.42155,0.35188 v -0.11559 a 0.50356597,0.50356597 0 0 1 0.0133,0.41447 c -0.10834,0.27332 -0.45508,0.56708 -0.93746,0.74257 v 0.001 c -0.23631,0.11902 -0.44183,0.29365 -0.68346,0.41007 -0.24332,0.11902 -0.51857,0.25767 -0.89248,0.23533 a 1.0044863,1.0044863 0 0 1 -0.39509,-0.059 3.1448621,3.1448621 0 0 1 -0.28398,-0.17466 c -0.172,-0.11902 -0.31999,-0.29266 -0.53972,-0.41008 v -0.004 h -0.004 c -0.35278,-0.21699 -0.54327,-0.45155 -0.605,-0.62616 -0.0617,-0.23633 -0.004,-0.41449 0.17032,-0.52915 0.19767,-0.11902 0.33515,-0.23899 0.42598,-0.29632 0.0916,-0.0654 0.12601,-0.09 0.15533,-0.11559 h 10e-4 v -0.003 c 0.14899,-0.17799 0.38451,-0.41451 0.73992,-0.53004 0.12271,-0.0333 0.25933,-0.0573 0.411,-0.0573 z m 2.46932,1.88905 c 0.31564,1.24964 1.05478,3.06461 1.53013,3.94474 0.25231,0.47095 0.75399,1.4631 0.97185,2.66687 0.13765,-0.004 0.29098,0.0167 0.4524,0.0563 0.56972,-1.47363 -0.4815,-3.05755 -0.96038,-3.4976 -0.19399,-0.17632 -0.20465,-0.29532 -0.10834,-0.29532 0.52034,0.47094 1.20381,1.38636 1.45163,2.43141 0.11467,0.47182 0.14099,0.97363 0.02,1.47277 0.059,0.0233 0.11902,0.053 0.18067,0.0591 0.91012,0.47094 1.2461,0.82722 1.08471,1.35547 v -0.038 c -0.053,-0.003 -0.10571,0 -0.15865,0 h -0.0133 c 0.13299,-0.41185 -0.16065,-0.72756 -0.93925,-1.07945 -0.80693,-0.35278 -1.4516,-0.29631 -1.56096,0.41008 -0.007,0.038 -0.0105,0.0584 -0.0166,0.11902 -0.06,0.02 -0.12271,0.0467 -0.18432,0.0563 -0.37922,0.23632 -0.58385,0.59001 -0.69937,1.04682 -0.11467,0.47004 -0.15,1.01948 -0.18065,1.64828 v 0.003 c -0.0167,0.29466 -0.15,0.73903 -0.28133,1.19057 -1.32284,0.9454 -3.15722,1.35638 -4.7164,0.29465 a 2.3326306,2.3326306 0 0 0 -0.35453,-0.47004 1.2787577,1.2787577 0 0 0 -0.24265,-0.29365 c 0.16066,0 0.29799,-0.0266 0.41009,-0.0591 a 0.54236967,0.54236967 0 0 0 0.27698,-0.29466 c 0.0953,-0.23531 0,-0.61467 -0.30432,-1.02565 -0.30431,-0.41183 -0.82106,-0.87749 -1.57686,-1.34136 -0.55561,-0.35275 -0.86955,-0.76726 -1.01418,-1.23115 -0.14566,-0.47093 -0.126,-0.95684 -0.0133,-1.45073 0.21599,-0.94361 0.76989,-1.8608 1.12354,-2.43667 0.0944,-0.0573 0.0333,0.11902 -0.35981,0.85896 -0.34922,0.66229 -1.00536,2.20212 -0.10769,3.39887 a 7.163689,7.163689 0 0 1 0.57061,-2.53636 c 0.49738,-1.12707 1.53716,-3.09018 1.61915,-4.64587 0.0423,0.0334 0.19133,0.11902 0.25499,0.17799 0.19233,0.11731 0.33513,0.29366 0.52031,0.41009 0.18533,0.17733 0.42068,0.29532 0.77256,0.29532 0.0343,0.003 0.066,0.007 0.097,0.007 0.36336,0 0.64381,-0.11836 0.87927,-0.23633 0.25565,-0.11836 0.45857,-0.29465 0.6526,-0.35275 h 0.004 c 0.41184,-0.11902 0.7364,-0.35451 0.92073,-0.61734 z m 1.92697,7.90009 c 0.0333,0.52914 0.30266,1.09794 0.77783,1.21436 0.51857,0.11797 1.26464,-0.29364 1.57949,-0.67466 l 0.18599,-0.0105 c 0.27766,-0.007 0.50884,0.0105 0.74696,0.23631 l 0.003,0.003 c 0.18333,0.17533 0.26899,0.4674 0.34481,0.77252 0.075,0.35279 0.136,0.6879 0.36073,0.94012 0.42861,0.46478 0.56884,0.799 0.56086,1.00535 l 0.003,-0.007 v 0.0166 l -0.003,-0.0105 c -0.0133,0.23099 -0.16299,0.34926 -0.43917,0.52474 -0.55561,0.35366 -1.53979,0.62791 -2.16683,1.38457 -0.54501,0.64997 -1.20821,1.00539 -1.79554,1.05035 -0.58558,0.0467 -1.09092,-0.17632 -1.38814,-0.79192 l -0.004,-0.003 c -0.18531,-0.35275 -0.10597,-0.90396 0.0493,-1.49039 0.15532,-0.58914 0.37745,-1.18528 0.40832,-1.67299 0.0333,-0.62967 0.067,-1.17734 0.17199,-1.59975 0.10571,-0.41008 0.27165,-0.7029 0.56529,-0.8678 l 0.0397,-0.02 z m -9.5369,0.0434 h 0.0105 c 0.0467,0 0.0927,0.004 0.13833,0.0133 0.33166,0.0486 0.62265,0.29365 0.90219,0.6632 l 0.80253,1.4675 0.003,0.003 c 0.21432,0.47008 0.66494,0.93835 1.04856,1.4437 0.38274,0.52738 0.67907,0.99742 0.6429,1.38457 v 0.007 c -0.0504,0.65614 -0.42332,1.01243 -0.99212,1.14119 -0.56884,0.11902 -1.34051,10e-4 -2.11217,-0.40921 -0.8537,-0.47268 -1.86788,-0.41362 -2.51957,-0.53091 -0.32532,-0.0584 -0.53798,-0.17633 -0.63765,-0.35275 -0.097,-0.17633 -0.0996,-0.53091 0.10861,-1.08475 v -0.004 l 0.001,-0.003 c 0.10333,-0.29465 0.0266,-0.66316 -0.0233,-0.98595 -0.0484,-0.35365 -0.0733,-0.62618 0.038,-0.829 0.14099,-0.29465 0.34921,-0.35275 0.6085,-0.47004 0.25931,-0.11902 0.5644,-0.17799 0.80692,-0.41451 h 0.001 v -0.001 c 0.22566,-0.23633 0.39245,-0.53001 0.58914,-0.73903 0.16767,-0.17733 0.33512,-0.29632 0.58467,-0.29632 z m 6.31355,-8.00238 c -0.38364,0.17733 -0.83342,0.47185 -1.31226,0.47185 -0.47801,0 -0.85546,-0.23566 -1.12885,-0.41098 -0.13599,-0.11797 -0.24699,-0.23633 -0.32898,-0.29532 -0.14466,-0.11797 -0.12693,-0.29365 -0.0654,-0.29365 0.096,0.0133 0.11362,0.11796 0.17533,0.17631 0.0846,0.0584 0.18966,0.17633 0.31732,0.29366 0.25765,0.17632 0.59971,0.41185 1.02918,0.41185 0.42772,0 0.92865,-0.23532 1.23291,-0.41095 0.17199,-0.11902 0.39245,-0.29465 0.57148,-0.41185 0.13766,-0.11994 0.13128,-0.23565 0.24599,-0.23565 0.11295,0.0133 0.03,0.11836 -0.1297,0.29266 a 7.1407597,7.1407597 0 0 1 -0.6085,0.41274 z m -0.95421,-1.39603 v -0.02 c -0.007,-0.0167 0.0105,-0.037 0.0266,-0.044 0.0654,-0.038 0.15865,-0.0233 0.22931,0.004 0.0556,0 0.141,0.059 0.13233,0.11902 -0.007,0.0434 -0.075,0.0584 -0.11902,0.0584 -0.0486,0 -0.0809,-0.038 -0.12429,-0.06 -0.046,-0.0166 -0.12864,-0.007 -0.14365,-0.0573 z m -0.48595,0 c -0.0166,0.051 -0.0996,0.0434 -0.14633,0.0584 -0.0414,0.0233 -0.076,0.06 -0.12337,0.06 -0.044,0 -0.11467,-0.0167 -0.11994,-0.06 -0.0105,-0.0584 0.0776,-0.11731 0.13232,-0.11731 0.0707,-0.0266 0.16233,-0.0414 0.22832,-0.004 0.0167,0.007 0.0333,0.0266 0.0266,0.044 v 0.0167 h 0.003 z"
       style="stroke-width:0.264584;fill:#000000;fill-opacity:1"
       inkscape:export-xdpi="94"
       inkscape:export-ydpi="94" />
    <path
       id="path967"
       d="m -83.518283,151.4364 c -0.836097,0 -2.129898,-0.95073 -3.492488,-0.91722 -1.79915,0.0233 -3.448417,1.04333 -4.375297,2.65815 -1.8671,3.24115 -0.48153,8.02832 1.339647,10.66267 0.8934,1.28233 1.94732,2.72517 3.34432,2.68018 1.34056,-0.0573 1.84326,-0.87046 3.470446,-0.87046 1.614822,0 2.072551,0.87046 3.492472,0.83609 1.443734,-0.0233 2.360064,-1.30529 3.241985,-2.59998 1.019527,-1.48869 1.442861,-2.93245 1.465799,-3.01181 -0.03441,-0.0104 -2.806322,-1.07684 -2.839856,-4.28358 -0.02333,-2.68109 2.187216,-3.96344 2.290426,-4.02075 -1.260303,-1.84325 -3.195287,-2.04965 -3.871752,-2.09549 -1.763857,-0.13765 -3.241113,0.9613 -4.065702,0.9613 z m 2.979184,-2.70405 c 0.743456,-0.8925 1.234693,-2.14046 1.097987,-3.37781 -1.064492,0.046 -2.347721,0.70996 -3.114977,1.60335 -0.687935,0.79024 -1.282369,2.062 -1.122738,3.27552 1.180032,0.0916 2.394499,-0.60676 3.138829,-1.50015"
       style="stroke-width:0.264583"
       inkscape:export-xdpi="94"
       inkscape:export-ydpi="94" />
    <path
       id="path969"
       d="m 2.4556246,153.46502 c 0,0 -0.3122,-2.90867 -3.19881502,-2.9898 -2.88758098,-0.0793 -4.37021998,2.18193 -4.37021998,5.41514 0,3.23244 1.638656,5.81837 4.44950698,5.81837 2.80811402,0 3.12041102,-3.23234 3.12041102,-3.23234 l 5.383485,0.322 c 0,0 0.317501,2.91924 -1.936753,5.14701 -2.250726,2.22614 -5.01836102,2.59037 -6.94638,2.57537 -1.931463,-0.0133 -4.609137,0.03 -7.196855,-2.61937 -2.5911566,-2.65473 -3.0303636,-5.23011 -3.0303636,-7.76128 0,-2.5313 0.49036,-5.88277 3.5692316,-8.42278 2.088626,-1.7278 4.209706,-2.3628 6.330783,-2.3628 8.856677,0 9.451991,8.16698 9.451991,8.16698 z"
       style="stroke-width:0.264583;fill:#a8b9cc;fill-opacity:1"
       inkscape:export-xdpi="94"
       inkscape:export-ydpi="94" />
    <path
       id="path971"
       d="m 47.894209,150.64663 c -0.14733,-0.25566 -0.35103,-0.4789 -0.57503,-0.60853 l -7.77516,-4.48906 c -0.4489,-0.25933 -1.18179,-0.25933 -1.62982,0 l -7.7769,4.48906 c -0.44803,0.25833 -0.81403,0.89339 -0.81403,1.41109 v 8.97812 c 0,0.25933 0.0917,0.5468 0.239,0.80256 0.14733,0.25567 0.351,0.4789 0.57503,0.60853 l 7.77513,4.48906 c 0.44803,0.25833 1.18182,0.25833 1.62982,0 l 7.77517,-4.48906 c 0.22399,-0.12967 0.42773,-0.35276 0.57502,-0.60853 0.14734,-0.25566 0.238,-0.54326 0.238,-0.80256 v -8.97812 c 0.003,-0.25933 -0.0883,-0.5468 -0.23633,-0.80256 z m -9.16685,11.5622 c -3.45721,0 -6.26968,-2.81338 -6.26968,-6.27058 0,-3.4572 2.81337,-6.27058 6.27054,-6.27058 a 6.2908553,6.2908553 0 0 1 5.42922,3.13354 l -2.71284,1.56982 a 3.1458686,3.1458686 0 0 0 -2.71638,-1.56982 3.1396951,3.1396951 0 0 0 -3.13704,3.13704 3.1396951,3.1396951 0 0 0 3.13618,3.13527 3.1485144,3.1485144 0 0 0 2.71637,-1.56808 l 2.71458,1.56985 a 6.2926192,6.2926192 0 0 1 -5.43095,3.13354 z m 6.27058,-5.92222 h -0.69673 v 0.69673 h -0.69676 v -0.69673 h -0.69673 v -0.69672 h 0.69673 v -0.69673 h 0.69676 v 0.69673 h 0.69673 z m 2.61227,0 h -0.69672 v 0.69673 h -0.69673 v -0.69673 h -0.69673 v -0.69672 h 0.69673 v -0.69673 h 0.69673 v 0.69673 h 0.69672 z"
       style="stroke-width:0.264583;fill:#00599c;fill-opacity:1"
       inkscape:export-xdpi="94"
       inkscape:export-ydpi="94" />
    <path
       id="path973"
       d="m 81.99536,145.51333 0.79379,0.17634 0.64388,0.22935 0.52037,0.26469 0.39693,0.28235 0.30003,0.30002 0.22035,0.30003 0.14101,0.29102 0.0883,0.26468 0.0353,0.22936 0.0167,0.17634 -0.01,0.11468 v 4.70995 l -0.044,0.55564 -0.11468,0.4851 -0.18535,0.40573 -0.22935,0.33516 -0.26468,0.27335 -0.29102,0.22035 -0.30869,0.16768 -0.30869,0.12334 -0.29102,0.0883 -0.26469,0.0617 -0.22935,0.0353 -0.18535,0.0167 h -5.26562 l -0.60858,0.044 -0.52037,0.12334 -0.44103,0.19402 -0.3616,0.23801 -0.29102,0.28236 -0.23802,0.30869 -0.17634,0.31736 -0.13235,0.32635 -0.0883,0.30869 -0.0617,0.28236 -0.0353,0.23801 -0.0167,0.18535 v 2.69897 h -1.96688 l -0.18535,-0.0267 -0.24702,-0.0617 -0.28235,-0.10601 -0.30869,-0.15868 -0.31769,-0.22935 -0.31736,-0.31736 -0.30869,-0.40573 -0.28235,-0.52037 -0.24702,-0.64388 -0.18535,-0.77616 -0.12334,-0.9261 -0.044,-1.08488 0.053,-1.07604 0.14101,-0.91731 0.21169,-0.76735 0.28235,-0.62622 0.31769,-0.50273 0.35279,-0.3881 0.37046,-0.29102 0.37043,-0.21168 0.35279,-0.14101 0.31769,-0.088 0.28236,-0.044 0.21168,-0.01 h 0.14101 l 0.053,0.01 h 7.1972 v -0.73209 h -5.15094 l -0.01,-2.42551 -0.0167,-0.32636 0.044,-0.30002 0.097,-0.27336 0.15001,-0.24701 0.22035,-0.22935 0.27335,-0.20302 0.33516,-0.17635 0.3881,-0.15867 0.44983,-0.13235 0.51157,-0.10567 0.56448,-0.0883 0.62624,-0.053 0.67912,-0.0353 0.74089,-0.0167 1.12018,0.044 z m -5.55668,1.74639 -0.20301,0.29102 -0.0707,0.36163 0.0707,0.36163 0.20301,0.30002 0.29102,0.19401 0.36163,0.0793 0.36163,-0.0793 0.29102,-0.19401 0.20301,-0.30002 0.0707,-0.36163 -0.0707,-0.36163 -0.20301,-0.29102 -0.29102,-0.19401 -0.36163,-0.0793 -0.36163,0.0793 z m 11.54552,3.48393 0.24702,0.053 0.28236,0.10601 0.30869,0.15868 0.31735,0.23801 0.31769,0.30869 0.30869,0.41457 0.28236,0.52037 0.24701,0.64388 0.18535,0.77616 0.12334,0.9173 0.044,1.08485 -0.053,1.08488 -0.14101,0.9173 -0.21168,0.75852 -0.28235,0.62621 -0.31769,0.50277 -0.35283,0.3969 -0.37043,0.29102 -0.37046,0.21168 -0.35279,0.14101 -0.31736,0.0793 -0.28235,0.044 -0.21168,0.0167 -0.14102,-0.01 h -7.2501 v 0.72326 h 5.15092 l 0.01,2.43434 0.0167,0.31736 -0.044,0.30002 -0.097,0.27336 -0.15001,0.25568 -0.22068,0.22035 -0.27335,0.21168 -0.33516,0.17635 -0.3881,0.15001 -0.44983,0.13234 -0.51154,0.11468 -0.56451,0.0793 -0.62621,0.0617 -0.67915,0.0353 -0.74089,0.01 -1.12015,-0.0353 -0.94377,-0.12334 -0.79379,-0.17635 -0.64388,-0.22035 -0.52037,-0.26468 -0.3969,-0.29103 -0.30002,-0.30002 -0.22068,-0.29969 -0.14101,-0.29102 -0.0883,-0.26468 -0.0353,-0.22035 -0.0167,-0.17635 0.01,-0.11468 v -4.70994 l 0.044,-0.56448 0.11467,-0.47627 0.18535,-0.40573 0.22935,-0.33516 0.26469,-0.28235 0.29102,-0.21168 0.30869,-0.17635 0.30869,-0.12334 0.29102,-0.0883 0.26468,-0.053 0.22935,-0.0353 0.18535,-0.0167 0.11468,-0.01 h 5.15094 l 0.60858,-0.044 0.52037,-0.12335 0.44104,-0.18534 0.36162,-0.24702 0.29103,-0.28235 0.23801,-0.30869 0.17635,-0.31736 0.13234,-0.31769 0.0883,-0.30869 0.0617,-0.28236 0.0353,-0.24701 0.0167,-0.18535 v -2.69897 h 1.8434 l 0.12334,0.01 z m -5.70659,12.56863 -0.20301,0.29102 -0.0707,0.36162 0.0707,0.3616 0.20301,0.29102 0.29103,0.20268 0.36162,0.0707 0.36163,-0.0707 0.29102,-0.20268 0.20302,-0.29102 0.0707,-0.3616 -0.0707,-0.36162 -0.20302,-0.29102 -0.29102,-0.20302 -0.36163,-0.0707 -0.36162,0.0707 z"
       style="stroke-width:0.264583;fill:#3776ab;fill-opacity:1"
       inkscape:export-xdpi="94"
       inkscape:export-ydpi="94" />
    <path
       id="path975"
       d="m 123.6424,152.93099 h -1.5827 l -0.86342,4.4395 h 1.40495 c 0.93218,0 1.6263,-0.17616 2.08228,-0.52657 0.45624,-0.35232 0.76287,-0.93719 0.92217,-1.75867 0.15398,-0.78802 0.0836,-1.34463 -0.20784,-1.66818 -0.29339,-0.3238 -0.87686,-0.48602 -1.75537,-0.48602 z m 8.36606,-7.57645 c -11.11058,0 -20.11878,4.73802 -20.11878,10.58248 0,5.84452 9.0082,10.58419 20.11878,10.58419 11.11057,0 20.11878,-4.73967 20.11878,-10.58419 0,-5.84446 -9.00821,-10.58248 -20.11878,-10.58248 z m -5.46559,12.49215 c -0.43787,0.41885 -0.96406,0.73428 -1.53746,0.92375 -0.56333,0.18123 -1.28253,0.27501 -2.15432,0.27501 h -1.98007 l -0.54812,2.81834 h -2.31027 l 2.06219,-10.60599 h 4.44286 c 1.3362,0 2.31033,0.35042 2.92391,1.05289 0.61338,0.70084 0.7981,1.67991 0.55319,2.93735 a 4.7547382,4.7547382 0 0 1 -0.51137,1.42003 c -0.23952,0.42773 -0.55319,0.82155 -0.94054,1.17868 z m 6.74647,1.19869 0.91038,-4.69271 c 0.10583,-0.53291 0.0653,-0.89859 -0.11405,-1.09142 -0.17933,-0.19453 -0.56333,-0.29148 -1.15181,-0.29148 h -1.83084 l -1.18026,6.07758 h -2.29354 l 2.06219,-10.60764 h 2.29183 l -0.54812,2.81999 h 2.04204 c 1.28595,0 2.17118,0.22432 2.65904,0.67232 0.48792,0.44736 0.63379,1.17354 0.44103,2.17783 l -0.95899,4.93579 z m 12.73687,-3.79741 a 4.6642037,4.6642037 0 0 1 -0.51137,1.42004 c -0.23952,0.42772 -0.55318,0.82154 -0.94054,1.17868 a 4.0908185,4.0908185 0 0 1 -1.53739,0.92375 c -0.56333,0.18123 -1.2826,0.27501 -2.1561,0.27501 h -1.9783 l -0.54812,2.81999 h -2.31033 l 2.06219,-10.60593 h 4.44122 c 1.3362,0 2.31033,0.35042 2.9239,1.0529 0.61339,0.69912 0.79975,1.67819 0.55509,2.93563 z m -4.35066,-2.31698 h -1.58106 l -0.86507,4.4395 h 1.40496 c 0.93382,0 1.62794,-0.17616 2.08227,-0.52657 0.45624,-0.35232 0.76287,-0.93719 0.92382,-1.75867 0.15398,-0.78802 0.0824,-1.34463 -0.20974,-1.66818 -0.29149,-0.3238 -0.87858,-0.48602 -1.75537,-0.48602 z"
       style="stroke-width:0.264583;fill:#777bb4;fill-opacity:1"
       inkscape:export-xdpi="94"
       inkscape:export-ydpi="94" />
    <path
       id="path977"
       d="m 194.67673,147.49784 c -0.14923,0 -0.25084,0.0196 -0.35589,0.0442 v 0.0147 h 0.0196 c 0.0702,0.135 0.18948,0.23366 0.27783,0.35442 0.0702,0.13892 0.13009,0.27784 0.20028,0.41578 l 0.0196,-0.0196 c 0.12223,-0.0859 0.18163,-0.22335 0.18163,-0.43247 -0.052,-0.0609 -0.0599,-0.12223 -0.10407,-0.18162 -0.052,-0.0869 -0.16347,-0.13009 -0.23366,-0.19881 z m -13.81267,17.13623 h -1.20399 a 66.048712,66.048712 0 0 0 -0.35049,-5.72765 h -0.01 l -1.83128,5.72765 h -0.91569 l -1.81827,-5.72765 h -0.0147 a 94.671463,94.671463 0 0 0 -0.25329,5.72765 h -1.09747 c 0.0712,-2.55342 0.24937,-4.94838 0.53246,-7.18233 h 1.49366 l 1.73384,5.2783 h 0.01 l 1.74945,-5.2783 h 1.42218 c 0.31417,2.61708 0.49874,5.01332 0.55592,7.18233 z m 5.21723,-5.29907 c -0.49093,2.65602 -1.13771,4.58862 -1.9378,5.7926 -0.62597,0.92993 -1.31173,1.39362 -2.05596,1.39362 -0.19881,0 -0.44179,-0.0599 -0.73514,-0.17918 v -0.64163 c 0.14284,0.0196 0.31171,0.0344 0.50133,0.0344 0.34804,0 0.62735,-0.0972 0.84034,-0.28815 0.25575,-0.23366 0.38289,-0.49614 0.38289,-0.78576 0,-0.20126 -0.10014,-0.61041 -0.29845,-1.22607 l -1.31699,-4.09896 h 1.18189 l 0.94422,3.06516 c 0.21304,0.69612 0.30238,1.1819 0.26605,1.45851 0.51955,-1.38188 0.8806,-2.89237 1.08451,-4.52367 z m 16.0076,5.29907 h -3.4158 v -7.18233 h 1.1494 v 6.29914 h 2.2664 z m -4.31195,0.17525 -1.31959,-0.64939 c 0.11683,-0.0987 0.22974,-0.20519 0.33135,-0.32447 0.56235,-0.6572 0.84161,-1.6339 0.84161,-2.9262 0,-2.37675 -0.93252,-3.56645 -2.7989,-3.56645 -0.91437,0 -1.6287,0.3014 -2.143,0.90524 -0.55847,0.65979 -0.83901,1.63129 -0.83901,2.91578 0,1.26245 0.24691,2.18978 0.7455,2.77942 0.45456,0.53251 1.13904,0.79877 2.05596,0.79877 0.34313,0 0.65719,-0.0442 0.94166,-0.12714 l 1.72088,1.00267 0.46732,-0.80784 z m -4.27563,-1.61309 c -0.29207,-0.46781 -0.43786,-1.22087 -0.43786,-2.25472 0,-1.80924 0.55072,-2.71447 1.64946,-2.71447 0.57536,0 1.00007,0.21697 1.26893,0.64938 0.29109,0.47027 0.43639,1.21567 0.43639,2.23783 0,1.82348 -0.55067,2.73785 -1.64946,2.73785 -0.57796,0 -1.00007,-0.21697 -1.27021,-0.64939 z m -2.1534,-0.552 c 0,0.61041 -0.22335,1.11175 -0.6702,1.50141 -0.4467,0.38976 -1.04292,0.58445 -1.79751,0.58445 -0.70525,0 -1.38193,-0.22335 -2.043,-0.66888 l 0.30779,-0.61821 c 0.56883,0.28569 1.08185,0.42608 1.54554,0.42608 0.43099,0 0.77019,-0.0947 1.01696,-0.28569 a 0.9792883,0.9792883 0 0 0 0.38976,-0.79876 c 0,-0.42854 -0.29846,-0.79224 -0.84162,-1.09747 -0.50389,-0.27686 -1.51049,-0.8533 -1.51049,-0.8533 -0.54807,-0.39859 -0.82081,-0.82605 -0.82081,-1.5287 0,-0.58444 0.20372,-1.05201 0.61042,-1.40917 0.4089,-0.3608 0.93512,-0.53899 1.58451,-0.53899 0.665,0 1.27281,0.17671 1.81833,0.53251 l -0.27686,0.61821 a 3.5405039,3.5405039 0 0 0 -1.38188,-0.29895 c -0.36767,0 -0.65199,0.0884 -0.84942,0.26754 a 0.88967173,0.88967173 0 0 0 -0.32202,0.68055 c 0,0.42609 0.30385,0.79229 0.86503,1.104 0.51042,0.27931 1.54166,0.87018 1.54166,0.87018 0.56236,0.39614 0.84162,0.81825 0.84162,1.51697 z m 12.18526,-7.60051 c -0.69485,-0.0196 -1.23388,0.052 -1.68456,0.24397 -0.13009,0.052 -0.33773,0.052 -0.35589,0.21697 0.0717,0.0687 0.082,0.18162 0.14284,0.27783 0.10407,0.17427 0.28324,0.40645 0.44965,0.52863 0.18163,0.14285 0.36375,0.28079 0.5546,0.40253 0.33773,0.20764 0.72081,0.33134 1.05201,0.54031 0.1885,0.12223 0.38043,0.27686 0.57143,0.40645 0.0947,0.0648 0.1561,0.18163 0.27784,0.22335 v -0.0245 c -0.0599,-0.0781 -0.0781,-0.19095 -0.13646,-0.27784 -0.0869,-0.0869 -0.17377,-0.16494 -0.25968,-0.25084 a 4.186003,4.186003 0 0 0 -0.90268,-0.87667 c -0.27784,-0.18948 -0.88575,-0.45455 -1.00007,-0.77279 l -0.0147,-0.0196 c 0.18948,-0.0147 0.41578,-0.0859 0.59745,-0.13744 0.29502,-0.078 0.56501,-0.0609 0.87019,-0.13794 0.13744,-0.0344 0.27685,-0.0781 0.41577,-0.12223 v -0.0781 c -0.15561,-0.15561 -0.27293,-0.36767 -0.43394,-0.51302 a 11.516379,11.516379 0 0 0 -1.43386,-1.0689 c -0.27293,-0.17426 -0.61822,-0.28569 -0.90528,-0.43394 -0.10407,-0.052 -0.27784,-0.0781 -0.33773,-0.16493 -0.15561,-0.18948 -0.24691,-0.4418 -0.35736,-0.66755 a 22.975611,22.975611 0 0 1 -0.71046,-1.51049 c -0.1556,-0.34018 -0.25084,-0.67929 -0.44179,-0.991 -0.8962,-1.47671 -1.86638,-2.37159 -3.35871,-3.24698 -0.32054,-0.18163 -0.7052,-0.25968 -1.11175,-0.35589 -0.21697,-0.01 -0.43394,-0.0245 -0.64938,-0.0344 -0.14285,-0.0609 -0.28079,-0.22581 -0.40253,-0.30533 -0.49353,-0.31171 -1.77154,-0.98706 -2.13523,-0.0933 -0.23366,0.56368 0.34705,1.11956 0.54811,1.4053 0.14923,0.19881 0.33773,0.42608 0.4418,0.64939 0.0609,0.1507 0.078,0.30532 0.13892,0.46241 0.13744,0.3819 0.269,0.80784 0.45063,1.16501 0.0947,0.18162 0.1988,0.37257 0.32054,0.53643 0.0702,0.0947 0.18948,0.13892 0.21697,0.29502 -0.12223,0.17672 -0.13008,0.43394 -0.19979,0.64939 -0.31171,0.98318 -0.18948,2.19885 0.25182,2.92227 0.13892,0.21549 0.47027,0.69356 0.91304,0.51041 0.38976,-0.1561 0.30386,-0.64938 0.41578,-1.08445 0.0245,-0.10407 0.01,-0.17279 0.0623,-0.24299 v 0.0196 c 0.12223,0.24397 0.24446,0.47664 0.35589,0.72081 0.26753,0.42608 0.7351,0.86758 1.12604,1.16241 0.20764,0.1556 0.37257,0.42608 0.63255,0.52215 v -0.0246 h -0.0196 c -0.056,-0.0756 -0.13008,-0.11192 -0.20028,-0.17279 a 4.4743346,4.4743346 0 0 1 -0.45456,-0.5195 11.377408,11.377408 0 0 1 -0.97017,-1.58196 c -0.14285,-0.27293 -0.26213,-0.56623 -0.37651,-0.83509 -0.052,-0.10407 -0.052,-0.25968 -0.13892,-0.31171 -0.13008,0.18948 -0.32104,0.35442 -0.41578,0.58832 -0.16493,0.37405 -0.18162,0.83386 -0.24396,1.31178 -0.0344,0.01 -0.0196,0 -0.0344,0.0196 -0.27784,-0.0677 -0.37258,-0.35589 -0.47664,-0.5974 -0.25968,-0.61694 -0.30288,-1.60793 -0.0781,-2.31834 0.0609,-0.18162 0.32054,-0.75591 0.21697,-0.92992 -0.0545,-0.16494 -0.22581,-0.25968 -0.32055,-0.39369 a 3.2184038,3.2184038 0 0 1 -0.31171,-0.5546 c -0.20764,-0.48597 -0.31171,-1.02344 -0.53771,-1.50922 -0.10407,-0.22482 -0.28569,-0.45995 -0.43394,-0.66627 -0.16494,-0.23366 -0.34656,-0.39859 -0.47812,-0.67535 -0.0442,-0.0947 -0.10406,-0.25183 -0.0344,-0.35589 0.0196,-0.0702 0.0545,-0.0972 0.12223,-0.11683 0.11438,-0.0933 0.43492,0.0294 0.54812,0.0805 0.32103,0.13009 0.59092,0.25182 0.85978,0.43394 0.12223,0.0859 0.25329,0.25084 0.4089,0.29355 h 0.18163 c 0.27784,0.0609 0.59092,0.0196 0.8507,0.0947 0.46093,0.14824 0.87666,0.36374 1.24944,0.5974 a 7.7317022,7.7317022 0 0 1 2.70794,2.96905 c 0.10407,0.20028 0.14923,0.38289 0.24397,0.59097 0.18163,0.42854 0.40645,0.86111 0.59093,1.27541 0.18162,0.4089 0.35736,0.82601 0.61821,1.16501 0.13009,0.18163 0.65199,0.27686 0.8858,0.3716 0.17279,0.0781 0.44179,0.14923 0.59745,0.24397 0.29846,0.18162 0.58965,0.38976 0.87019,0.58964 0.14284,0.0987 0.57536,0.31564 0.60133,0.49098 z"
       style="stroke-width:0.264583;fill:#4479a1;fill-opacity:1"
       inkscape:export-xdpi="94"
       inkscape:export-ydpi="94" />
    <path
       id="path979"
       d="m 241.6577,146.23647 v 19.40277 a 0.88194442,0.88194442 0 0 1 -0.88193,0.88197 h -3.0868 v -14.99307 c 0,-0.72937 -0.59357,-1.32293 -1.32294,-1.32293 h -1.7639 v -3.96874 a 0.88194442,0.88194442 0 0 1 0.88197,-0.88193 h 5.29167 a 0.88194442,0.88194442 0 0 1 0.88193,0.88193 z m -5.29167,4.40974 h -5.29166 a 0.88194442,0.88194442 0 0 0 -0.88194,0.88193 v 3.96873 h 1.76387 c 0.7294,0 1.32293,0.59357 1.32293,1.32294 v 9.7014 h 3.96874 v -14.99307 a 0.88194442,0.88194442 0 0 0 -0.88194,-0.88193 z m -4.40973,5.29166 h -5.29167 a 0.88194442,0.88194442 0 0 0 -0.88193,0.88194 v 8.81943 a 0.88194442,0.88194442 0 0 0 0.88193,0.88197 h 6.17364 v -9.7014 a 0.88194442,0.88194442 0 0 0 -0.88197,-0.88194 z"
       style="stroke-width:0.264583;fill:#f2c811;fill-opacity:1"
       inkscape:export-xdpi="94"
       inkscape:export-ydpi="94" />
    <path
       id="path981"
       d="m 286.08169,145.35474 q 0.41325,0 0.70551,0.30247 0.30247,0.29218 0.30247,0.70555 v 19.15043 q 0,0.41324 -0.30247,0.70554 -0.29218,0.30247 -0.70551,0.30247 h -16.12672 q -0.41325,0 -0.70555,-0.30247 -0.30247,-0.29218 -0.30247,-0.70554 v -3.5277 h -5.0396 q -0.41325,0 -0.70555,-0.30247 -0.30247,-0.29219 -0.30247,-0.70555 v -10.07921 q 0,-0.41321 0.30247,-0.70551 0.28228,-0.30247 0.70555,-0.30247 h 5.0396 v -3.52771 q 0,-0.41325 0.30247,-0.70555 0.29219,-0.30247 0.70555,-0.30247 z m -17.13463,11.87327 1.43125,2.68106 h 2.15696 l -2.39886,-3.90066 2.35851,-3.83006 h -2.0763 l -1.3103,2.419 -0.0503,0.0808 -0.0404,0.0907 -0.64505,-1.29015 -0.66525,-1.30021 h -2.19725 l 2.28796,3.85022 -2.49962,3.8805 h 2.17711 z m 8.31532,7.78112 v -3.02376 h -6.80346 v 3.02376 z m 0,-4.53562 v -3.7797 h -2.26781 v 3.7797 z m 0,-5.2916 v -3.77966 h -2.26781 v 3.77966 z m 0,-5.29156 v -3.02375 h -6.80346 v 3.02375 z m 8.31532,15.11878 v -3.02376 h -6.80342 v 3.02376 z m 0,-4.53562 v -3.7797 h -6.80342 v 3.7797 z m 0,-5.2916 v -3.77966 h -6.80342 v 3.77966 z m 0,-5.29156 v -3.02375 h -6.80342 v 3.02375 z"
       style="stroke-width:0.264583;fill:#217346;fill-opacity:1"
       inkscape:export-xdpi="94"
       inkscape:export-ydpi="94" />
    <path
       id="path983"
       d="m -33.265571,147.59308 -4.37961,-2.10734 a 1.324524,1.324524 0 0 0 -1.51161,0.257 l -8.38685,7.65102 -3.65266,-2.77314 a 0.88567567,0.88567567 0 0 0 -1.13126,0.0506 l -1.172,1.06565 a 0.88656222,0.88656222 0 0 0 -9e-4,1.3112 l 3.1677,2.89022 -3.1677,2.89019 a 0.88656222,0.88656222 0 0 0 9e-4,1.31123 l 1.17291,1.06474 a 0.88567567,0.88567567 0 0 0 1.13126,0.0506 l 3.65262,-2.77314 8.38689,7.65101 a 1.3227508,1.3227508 0 0 0 1.5107,0.25701 l 4.38139,-2.10738 a 1.3298434,1.3298434 0 0 0 0.75181,-1.19861 v -14.29227 a 1.3298434,1.3298434 0 0 0 -0.75359,-1.19865 z m -4.56226,13.17522 -6.36371,-4.82999 6.36371,-4.82999 z"
       style="stroke-width:0.264583;fill:#007acc;fill-opacity:1"
       inkscape:export-xdpi="94"
       inkscape:export-ydpi="94" />
  </g>
</svg>
